<?xml version="1.0" encoding="UTF-8" standalone="no"?>
<!-- Created with Inkscape (http://www.inkscape.org/) -->

<svg
   width="360.8259mm"
   height="265.25528mm"
   viewBox="0 0 360.8259 265.25528"
   version="1.1"
   id="svg1166"
   xml:space="preserve"
   inkscape:version="1.2.2 (732a01da63, 2022-12-09)"
   sodipodi:docname="deepseek-color.svg"
   xmlns:inkscape="http://www.inkscape.org/namespaces/inkscape"
   xmlns:sodipodi="http://sodipodi.sourceforge.net/DTD/sodipodi-0.dtd"
   xmlns="http://www.w3.org/2000/svg"
   xmlns:svg="http://www.w3.org/2000/svg"><sodipodi:namedview
     id="namedview1168"
     pagecolor="#ffffff"
     bordercolor="#000000"
     borderopacity="0.25"
     inkscape:showpageshadow="2"
     inkscape:pageopacity="0.0"
     inkscape:pagecheckerboard="0"
     inkscape:deskcolor="#d1d1d1"
     inkscape:document-units="mm"
     showgrid="false"
     inkscape:zoom="0.75906346"
     inkscape:cx="546.06765"
     inkscape:cy="366.8995"
     inkscape:window-width="2560"
     inkscape:window-height="1417"
     inkscape:window-x="-8"
     inkscape:window-y="-8"
     inkscape:window-maximized="1"
     inkscape:current-layer="layer1" /><defs
     id="defs1163" /><g
     inkscape:label="Layer 1"
     inkscape:groupmode="layer"
     id="layer1"
     transform="translate(110.41461,-5.1507832)"><path
       style="fill:#4d6bfe;stroke-width:0.352777;fill-opacity:1"
       d="m 21.148133,270.31831 c -31.16305,-2.49805 -57.19167,-13.56824 -81.865941,-34.81828 -5.139492,-4.42624 -14.77374,-14.31485 -18.55153,-19.04136 -15.19554,-19.01145 -24.740192,-39.87588 -28.839762,-63.04314 -6.43631,-36.37262 0.61315,-68.008182 21.028362,-94.368066 15.774998,-20.368491 36.557833,-32.473485 62.014981,-36.120711 14.562071,-2.0863 28.3441303,-1.917999 43.66208,0.53317 4.12092,0.659432 3.96906,0.695749 16.66292,-3.985241 16.64057,-6.136381 26.47144,-8.247052 36.15972,-7.763428 6.57206,0.32807 11.12741,2.186276 10.86679,4.432757 -0.0843,0.726419 -0.52804,1.132798 -2.08446,1.90884 -4.77553,2.381112 -9.27224,7.32736 -10.60085,11.660613 -1.00391,3.27429 -0.78756,6.386785 0.65726,9.455309 1.74533,3.706738 3.51065,5.574763 8.45925,8.951425 11.57483,7.898041 16.31348,12.067107 34.682557,30.513711 8.05216,8.086143 15.88241,15.698576 17.40057,16.916506 7.21633,5.789325 18.87517,12.356775 21.9363,12.356775 1.20083,0 1.67068,-0.17698 2.10751,-0.79375 0.80465,-1.13612 5.12228,-14.708551 5.12228,-16.10182 0,-1.413378 -1.02132,-2.476685 -5.28847,-5.50582 -3.99494,-2.83591 -10.59653,-9.476291 -13.41371,-13.492507 -6.74433,-9.614842 -10.10904,-19.400983 -10.90844,-31.726772 -0.54813,-8.451371 0.48075,-16.945343 2.87428,-23.728786 1.12178,-3.179217 3.40399,-7.9702814 4.60776,-9.6730974 1.57342,-2.2257279 4.60957,-2.3237614 6.39124,-0.2063697 0.55044,0.6541558 1.51045,3.0330245 2.52282,6.2514851 2.09447,6.658549 3.32973,8.870055 6.72617,12.041952 2.39178,2.233655 3.45937,2.892123 9.53965,5.883926 7.72698,3.802046 11.51636,6.415876 14.44012,9.960483 2.365,2.867194 4.47299,7.090738 5.48986,10.999406 0.42908,1.649235 0.82645,3.059896 0.88308,3.134802 0.0566,0.0749 1.07928,-0.767726 2.27258,-1.872514 6.11495,-5.661351 13.68491,-9.30233 21.64128,-10.40896 1.49603,-0.208079 5.05015,-0.380672 7.898,-0.38354 9.8884,-0.0099 13.73436,-1.761794 22.35575,-10.182977 2.50685,-2.44865 4.96353,-4.664874 5.45928,-4.924941 1.26278,-0.662474 3.05692,-0.241223 4.54785,1.067803 2.42477,2.128975 2.81215,4.119663 2.06261,10.599261 -1.45534,12.581602 -4.86482,22.73485 -10.49496,31.253811 -9.17803,13.887212 -24.34852,23.163927 -41.91117,25.628574 -3.81865,0.535887 -5.20978,1.166363 -5.29317,2.398898 -0.0292,0.432091 -0.0169,3.563753 0.0275,6.959233 0.0744,5.69396 -0.0183,6.74917 -1.19179,13.58193 -4.22785,24.61461 -10.93565,44.73744 -20.40289,61.20696 -5.78652,10.06636 -11.04413,17.03062 -23.58682,31.24322 -3.17309,3.59555 -5.81448,6.66554 -5.86977,6.8222 -0.24244,0.68707 2.85246,2.39843 6.78945,3.75432 9.58863,3.30224 25.29067,10.3673 26.41639,11.88595 0.86863,1.17179 1.19846,4.58396 0.61423,6.35421 -0.59063,1.78956 -2.68054,4.04715 -4.68857,5.06468 -4.7434,2.40369 -19.29545,4.09247 -28.67821,3.32817 -12.49086,-1.01746 -19.22035,-2.46703 -27.16389,-5.85126 -0.19403,-0.0827 -1.8609,1.05693 -3.70417,2.53243 -6.71885,5.37837 -13.322547,9.62644 -20.787697,13.37249 -12.97234,6.5096 -25.55163,9.79033 -43.94702,11.46161 -4.34929,0.39515 -21.89726,0.72893 -25.04722,0.47643 z m 85.989577,-29.99656 c 1.30969,-0.1237 2.38125,-0.33822 2.38125,-0.47673 0,-0.13851 -0.91281,-0.85317 -2.02848,-1.58816 -5.14707,-3.39087 -14.165487,-11.03432 -20.372907,-17.26682 -10.15301,-10.19398 -17.29089,-19.35095 -31.93499,-40.96838 -8.54211,-12.60975 -12.73054,-18.48943 -17.05393,-23.94011 -14.65535,-18.47665 -32.1569897,-32.72219 -52.2583,-42.53593 -9.705311,-4.73826 -18.523267,-7.95094 -28.39861,-10.34658 -10.916201,-2.64813 -18.4751,-3.594415 -26.281944,-3.290117 -7.679147,0.299327 -13.129687,1.291117 -15.361667,2.795247 -2.17279,1.46423 -2.63655,2.74796 -2.5806,7.14329 0.19439,15.27069 4.84309,35.85343 11.73506,51.95853 10.852073,25.35907 25.324742,43.58598 46.495415,58.55646 8.796962,6.22062 13.681839,8.73676 20.2950063,10.45369 8.66872998,2.2506 15.14875,1.87815 19.7622597,-1.13588 1.86267,-1.2169 2.73369,-2.77778 2.73369,-4.89882 0,-1.48547 -0.27455,-2.20413 -1.80349,-4.72085 -6.0689397,-9.98989 -7.7859497,-17.82764 -4.5094597,-20.58462 1.53984,-1.29569 2.9986697,-1.43232 6.3213397,-0.59209 7.76003,1.96234 23.24167,11.73745 43.91244,27.72629 3.29847,2.55137 7.00975,5.32291 8.24728,6.15899 5.47729,3.70049 13.3326,6.29791 22.79716,7.53809 1.82538,0.23918 15.407917,0.25016 17.903477,0.0145 z m 15.25905,-81.28811 c 8.02557,-2.55072 8.91966,-4.98626 4.82864,-13.15353 -2.53889,-5.06859 -7.94193,-13.28753 -11.87586,-18.06519 -3.68599,-4.47654 -9.88089,-10.3228 -13.41531,-12.66031 -8.770127,-5.8002 -19.008577,-6.32262 -23.610027,-1.2047 -1.94025,2.15804 -2.33008,3.67498 -1.36857,5.32556 1.08216,1.85769 3.13594,2.76084 7.08606,3.1161 5.45134,0.49022 7.46608,1.34707 10.19916,4.3375 2.25863,2.47129 2.79581,4.23029 2.36298,7.73755 -0.17272,1.3996 -0.31404,4.60849 -0.31404,7.13084 0,4.44622 0.0351,4.66027 1.15135,7.01728 1.86153,3.93076 7.324627,8.70252 11.940637,10.42959 4.39457,1.64422 7.8168,1.64142 13.01498,-0.0106 z M 85.430213,138.00971 c 1.66244,-0.78885 2.56634,-2.3528 2.56798,-4.44312 0.001,-1.40914 -0.18598,-1.88526 -1.15732,-2.94518 -1.46616,-1.59986 -3.89161,-2.02801 -5.76707,-1.01799 -3.35334,1.80589 -3.11165,6.95087 0.39932,8.50064 1.43128,0.6318 2.47956,0.6068 3.95709,-0.0944 z"
       id="path2740" /></g></svg>
