<?xml version="1.0" encoding="UTF-8" standalone="no"?>
<!-- Created with Inkscape (http://www.inkscape.org/) -->

<svg
   version="1.1"
   id="svg2754"
   width="1365.3333"
   height="1365.3333"
   viewBox="0 0 1365.3333 1365.3333"
   sodipodi:docname="gemma-color.svg"
   inkscape:export-filename="..\Code\VillageAi\images\gemma-color.png"
   inkscape:export-xdpi="4.5100002"
   inkscape:export-ydpi="4.5100002"
   inkscape:version="1.2.2 (732a01da63, 2022-12-09)"
   xmlns:inkscape="http://www.inkscape.org/namespaces/inkscape"
   xmlns:sodipodi="http://sodipodi.sourceforge.net/DTD/sodipodi-0.dtd"
   xmlns:xlink="http://www.w3.org/1999/xlink"
   xmlns="http://www.w3.org/2000/svg"
   xmlns:svg="http://www.w3.org/2000/svg">
  <defs
     id="defs2758">
    <linearGradient
       inkscape:collect="always"
       id="linearGradient3882">
      <stop
         style="stop-color:#446eff;stop-opacity:1;"
         offset="0.24928367"
         id="stop3878" />
      <stop
         style="stop-color:#ffffff;stop-opacity:1;"
         offset="1"
         id="stop3880" />
    </linearGradient>
    <linearGradient
       inkscape:collect="always"
       xlink:href="#linearGradient3882"
       id="linearGradient3884"
       x1="1530.2769"
       y1="1325.2227"
       x2="2459.7617"
       y2="46.520164"
       gradientUnits="userSpaceOnUse"
       gradientTransform="translate(-1179.3547,11.216695)" />
  </defs>
  <sodipodi:namedview
     id="namedview2756"
     pagecolor="#ffffff"
     bordercolor="#000000"
     borderopacity="0.25"
     inkscape:showpageshadow="2"
     inkscape:pageopacity="0.0"
     inkscape:pagecheckerboard="0"
     inkscape:deskcolor="#d1d1d1"
     showgrid="false"
     inkscape:zoom="0.62407011"
     inkscape:cx="963.83402"
     inkscape:cy="821.22183"
     inkscape:window-width="2560"
     inkscape:window-height="1417"
     inkscape:window-x="-8"
     inkscape:window-y="-8"
     inkscape:window-maximized="1"
     inkscape:current-layer="g2760" />
  <g
     inkscape:groupmode="layer"
     inkscape:label="Image"
     id="g2760">
    <path
       style="fill:url(#linearGradient3884);fill-opacity:1;stroke-width:1.33333"
       d="m 677.3331,1264.8675 v -100.4658 l -20.3333,-0.7871 c -84.4879,-3.2705 -171.206,-32.4377 -244.9999,-82.4042 -18.2898,-12.3842 -40.0732,-29.5533 -53.1632,-41.9018 l -9.5034,-8.965 V 1113.1718 1196 H 344 338.6666 v -84.6667 -84.6667 h -84.66659 -84.6667 V 1021.3333 1016 h 82.8282 82.82809 l -8.965,-9.5034 c -12.3484,-13.08999 -29.5175,-34.87339 -41.90169,-53.16328 -49.9666,-73.79388 -79.1337,-160.51209 -82.4042,-244.99999 l -0.7871,-20.33334 H 100.46581 0 v -5.33333 -5.33333 h 100.46581 100.4658 l 0.7871,-20.33334 c 3.2705,-84.4879 32.4376,-171.20611 82.4042,-244.99999 12.38419,-18.28985 29.55329,-40.07325 41.90169,-53.16331 l 8.965,-9.50336 h -82.82809 -82.8282 V 344 338.66667 h 84.6667 84.66659 V 254 169.33333 H 344 h 5.3333 v 82.82818 82.82817 l 9.1976,-8.67658 c 12.2241,-11.53164 30.8291,-26.39107 48.8023,-38.97758 73.183,-51.24926 161.8539,-81.50237 250.7159,-85.54011 l 19.284,-0.87623 V 100.45959 5.1659531e-6 h 5.3334 5.3333 V 100.45959 200.91918 l 19.2012,0.87247 c 107.8073,4.89858 213.7747,48.26587 295.1321,120.78321 l 13.6667,12.18168 v -82.7116 -82.71161 h 5.3333 5.3333 V 254 338.66667 h 84.6667 84.6667 V 344 v 5.33333 h -82.7116 -82.7116 L 1042.7583,363 c 60.3693,67.72859 100.6918,152.57998 115.1599,242.33333 3.6467,22.62238 6.0464,47.27366 6.0678,62.33333 l 0.014,9.66667 h 100.6666 100.6667 v 5.33333 5.33333 h -100.6669 -100.6666 l -0.012,9.66667 c -0.059,50.05633 -15.8083,122.10957 -37.9409,173.58109 -21.2095,49.3248 -51.2024,96.36829 -84.7937,132.99795 L 1030.4746,1016 h 82.7626 82.7626 v 5.3333 5.3333 h -84.6667 -84.6667 V 1111.3333 1196 h -5.3333 -5.3333 v -82.8282 -82.8282 l -9.5034,8.965 c -5.2268,4.9308 -15.8768,14.0398 -23.6666,20.2422 -78.5943,62.579 -178.1879,100.3357 -274.4967,104.0638 l -20.3333,0.7871 v 100.4658 100.4658 h -5.3333 -5.3334 z m 0,-141.4454 c 0,-26.2095 -0.4102,-32.1086 -3.3145,-47.6667 -2.9338,-15.7162 -10.652,-47.4997 -11.8177,-48.6654 -0.2392,-0.2392 -67.8823,-0.2823 -150.3179,-0.096 l -149.8831,0.339 16,13.6956 c 50.0045,42.8028 112.1634,76.1524 175.3333,94.0703 37.1586,10.5399 80.1339,17.2449 115.6666,18.0462 l 8.3333,0.1879 z m 38.6667,28.568 c 102.3793,-7.6031 199.6663,-47.9421 275.3255,-114.1609 l 11.9922,-10.4959 -149.9197,-0.3391 c -82.4559,-0.1865 -150.3297,0.1135 -150.8308,0.6667 -1.5563,1.7181 -7.641,26.7944 -11.1847,46.0945 -2.9873,16.2695 -3.3825,21.9951 -3.3825,49 v 30.5779 h 5 c 2.75,0 13.1,-0.6047 23,-1.3399 z M 657.9685,1013 c -2.452,-8.3812 -16.6696,-42.56409 -24.6074,-59.16239 -46.3446,-96.90958 -124.5503,-175.13826 -221.7873,-221.8524 -16.2863,-7.82415 -49.8448,-21.7552 -59.2405,-24.59236 l -3,-0.9059 V 861.24347 1016 h 154.7565 154.7564 z m 253.3611,-90.34019 -93.3298,-93.34017 -8.6667,9.53747 c -43.49,47.85985 -77.5566,104.29657 -99.4832,164.80949 L 705.381,1016 h 149.6392 149.6391 z m 104.2343,-215.54014 c -0.761,-0.76101 -18.2583,5.54698 -35.4824,12.79186 -54.8184,23.05789 -103.2218,54.08007 -145.415,93.19774 l -8.6667,8.03493 94.6667,94.76483 94.6666,94.76477 0.339,-151.55341 c 0.1865,-83.3544 0.1378,-151.75472 -0.1082,-152.00072 z m -677.4084,-4.07525 c -1.0891,-1.08909 -42.03,-10.86615 -54.05719,-12.90932 -8.9573,-1.52168 -21.1759,-2.13511 -42.5281,-2.13511 h -29.9599 l 0.9099,17 c 5.7933,108.24441 46.9353,209.89284 116.66399,288.23862 l 8.8158,9.90519 0.3391,-149.78833 c 0.1865,-82.38361 0.1038,-150.02358 -0.1836,-150.31105 z m 715.0825,269.62219 c 41.2211,-52.54106 71.0271,-113.78321 86.7861,-178.31874 7.4198,-30.38503 13.2582,-73.13445 13.2952,-97.34788 l 0.014,-9 h -31.2656 c -35.9212,0 -51.5025,2.26456 -88.4011,12.8481 l -7,2.0078 0.063,150.23871 0.063,150.2387 7.9925,-8.66669 c 4.3959,-4.7666 12.6999,-14.6666 18.4532,-22 z M 709.9197,901.99999 c 40.6928,-69.1284 94.2446,-126.57405 158.8374,-170.38674 23.7345,-16.0989 40.0244,-25.49967 66.3432,-38.28611 l 21.1005,-10.25124 -19.7672,-9.6294 C 882.2871,647.06954 837.7342,615.16571 793.917,571.39216 750.1108,527.6295 718.7571,483.75817 691.2718,427.76709 l -8.9503,-18.2329 -13.5129,26.89957 c -25.9341,51.62554 -53.6885,90.73901 -92.751,130.71118 -20.0394,20.50615 -38.0453,36.528 -58.2326,51.81596 -28.1732,21.33581 -66.0001,44.36745 -94.8951,57.77875 l -13.4992,6.26553 24.9513,12.39516 c 55.9094,27.77436 92.8313,54.31957 137.0312,98.5196 44.2389,44.23893 71.0513,81.54301 98.3581,136.84567 l 12.2285,24.76563 10.0356,-20.09896 c 5.5196,-11.05443 13.5675,-26.09896 17.8843,-33.43229 z M 301.3333,672.25357 c 10.6333,-2.3248 23.2333,-5.33754 28,-6.69495 L 338,663.09059 338.2741,512.54529 338.5483,362 l -8.0096,8.66667 c -43.30029,46.85256 -82.33189,117.92179 -100.32139,182.66666 -10.5682,38.03517 -15.4113,67.5591 -17.6807,107.78316 l -0.928,16.44981 35.1957,-0.54291 c 33.5108,-0.51693 36.1212,-0.74526 54.52899,-4.76982 z m 851.5561,-12.58691 c -3.5574,-73.32456 -25.1349,-147.68897 -60.8486,-209.7079 -16.3852,-28.45369 -38.7522,-59.48555 -59.041,-81.91293 l -6.3334,-7.00091 v 151.22984 151.22985 l 17.6667,4.26186 c 15.7772,3.80607 31.4226,7.11207 41,8.66368 1.8333,0.29702 17.9764,0.62174 35.8734,0.7216 l 32.54,0.18158 z M 385.7103,646.16218 c 49.4773,-20.50055 98.286,-52.05324 144.0098,-93.09588 l 6.3868,-5.73297 -93.3868,-93.32976 -93.3868,-93.32976 V 510.31296 659.9521 l 12.3333,-4.46891 c 6.7833,-2.4579 17.603,-6.65236 24.0437,-9.32101 z M 1015.9998,504.66666 V 349.33333 H 860.7114 705.423 l 4.7521,13.6524 c 22.1494,63.6337 62.9082,127.55335 113.7636,178.40871 44.9373,44.93728 96.4517,79.76479 154.9281,104.74279 6.4543,2.75698 34.7929,13.37931 36.7996,13.7939 0.1834,0.0379 0.3334,-69.83113 0.3334,-155.26447 z m -461.0591,23 c 39.1054,-43.29697 67.8634,-88.53913 90.4249,-142.25731 5.7693,-13.73643 13.3009,-33.91907 13.3009,-35.64288 0,-0.23823 -68.5484,-0.43314 -152.3297,-0.43314 H 354.007 L 448.6666,444 c 52.0628,52.06666 95.0374,94.66666 95.4993,94.66666 0.4618,0 5.3104,-4.95 10.7748,-11 z M 664.485,331.66667 c 10.6006,-36.95779 12.8481,-52.45848 12.8481,-88.60843 v -31.47305 l -18.3333,0.83663 c -69.3815,3.16619 -141.2463,23.51682 -203.1028,57.51444 -28.079,15.43278 -66.3036,42.61852 -85.8971,61.09093 l -8,7.54224 150.2387,0.0487 150.2386,0.0487 2.0078,-7 z m 336.7093,3.95205 c -1.90971,-1.62362 -7.8994,-6.80904 -13.3105,-11.52313 C 942.235,284.32651 879.8934,250.18 819.8213,232.04235 781.0099,220.32394 730.3037,212.00487 697.6665,212.00111 l -9.6667,-0.001 0.012,32.33335 c 0.011,30.66428 0.2198,33.36574 4.045,52.33333 3.7029,18.36125 8.7146,38.56644 10.1696,41 0.3288,0.55 68.5125,0.97843 151.5192,0.95205 l 150.9213,-0.048 -3.4722,-2.95204 z"
       id="path2764" />
  </g>
</svg>
